<?xml version="1.0" standalone="no"?>
<!DOCTYPE svg PUBLIC "-//W3C//DTD SVG 20010904//EN"
 "http://www.w3.org/TR/2001/REC-SVG-20010904/DTD/svg10.dtd">
<svg version="1.0" xmlns="http://www.w3.org/2000/svg"
 width="1024.000000pt" height="1024.000000pt" viewBox="0 0 1024.000000 1024.000000"
 preserveAspectRatio="xMidYMid meet">
<metadata>
Created by potrace 1.16, written by Peter Selinger 2001-2019
</metadata>
<g transform="translate(0.000000,1024.000000) scale(0.100000,-0.100000)"
fill="#000000" stroke="none">
<path d="M5031 9336 c2 -2 92 -6 199 -9 131 -3 162 -2 95 3 -108 8 -301 12
-294 6z"/>
<path d="M4828 9323 c23 -2 59 -2 80 0 20 2 1 4 -43 4 -44 0 -61 -2 -37 -4z"/>
<path d="M4703 9313 c15 -2 39 -2 55 0 15 2 2 4 -28 4 -30 0 -43 -2 -27 -4z"/>
<path d="M5453 9313 c15 -2 39 -2 55 0 15 2 2 4 -28 4 -30 0 -43 -2 -27 -4z"/>
<path d="M4633 9303 c9 -2 23 -2 30 0 6 3 -1 5 -18 5 -16 0 -22 -2 -12 -5z"/>
<path d="M5630 9295 c110 -17 157 -16 60 1 -41 7 -91 13 -110 12 -19 0 3 -6
50 -13z"/>
<path d="M4523 9293 c9 -2 25 -2 35 0 9 3 1 5 -18 5 -19 0 -27 -2 -17 -5z"/>
<path d="M4463 9283 c9 -2 23 -2 30 0 6 3 -1 5 -18 5 -16 0 -22 -2 -12 -5z"/>
<path d="M4398 9273 c6 -2 18 -2 25 0 6 3 1 5 -13 5 -14 0 -19 -2 -12 -5z"/>
<path d="M5788 9273 c6 -2 18 -2 25 0 6 3 1 5 -13 5 -14 0 -19 -2 -12 -5z"/>
<path d="M4338 9263 c6 -2 18 -2 25 0 6 3 1 5 -13 5 -14 0 -19 -2 -12 -5z"/>
<path d="M5848 9263 c6 -2 18 -2 25 0 6 3 1 5 -13 5 -14 0 -19 -2 -12 -5z"/>
<path d="M4288 9253 c6 -2 18 -2 25 0 6 3 1 5 -13 5 -14 0 -19 -2 -12 -5z"/>
<path d="M5945 9245 c68 -18 103 -17 40 1 -27 7 -59 13 -70 13 -11 -1 3 -7 30
-14z"/>
<path d="M4238 9243 c6 -2 18 -2 25 0 6 3 1 5 -13 5 -14 0 -19 -2 -12 -5z"/>
<path d="M4155 9230 c-27 -7 -27 -8 -5 -8 14 0 36 4 50 8 20 6 21 8 5 8 -11 0
-33 -4 -50 -8z"/>
<path d="M6041 9226 c2 -2 22 -6 44 -9 28 -5 34 -4 20 3 -19 8 -73 14 -64 6z"/>
<path d="M4098 9213 c7 -3 16 -2 19 1 4 3 -2 6 -13 5 -11 0 -14 -3 -6 -6z"/>
<path d="M6138 9203 c7 -3 16 -2 19 1 4 3 -2 6 -13 5 -11 0 -14 -3 -6 -6z"/>
<path d="M4018 9193 c6 -2 18 -2 25 0 6 3 1 5 -13 5 -14 0 -19 -2 -12 -5z"/>
<path d="M6178 9193 c7 -3 16 -2 19 1 4 3 -2 6 -13 5 -11 0 -14 -3 -6 -6z"/>
<path d="M3955 9180 c-13 -5 -14 -9 -5 -9 8 0 24 4 35 9 13 5 14 9 5 9 -8 0
-24 -4 -35 -9z"/>
<path d="M6225 9181 c11 -4 36 -11 55 -15 24 -4 29 -3 15 3 -11 4 -36 11 -55
15 -24 4 -29 3 -15 -3z"/>
<path d="M3878 9153 c7 -3 16 -2 19 1 4 3 -2 6 -13 5 -11 0 -14 -3 -6 -6z"/>
<path d="M6380 9135 c46 -18 64 -17 25 0 -16 8 -37 14 -45 14 -8 0 1 -7 20
-14z"/>
<path d="M6448 9113 c7 -3 16 -2 19 1 4 3 -2 6 -13 5 -11 0 -14 -3 -6 -6z"/>
<path d="M6481 9106 c8 -8 172 -66 176 -62 2 2 -35 18 -82 35 -83 30 -103 36
-94 27z"/>
<path d="M3665 9085 c-25 -12 -26 -14 -5 -9 28 7 60 23 45 23 -5 0 -23 -6 -40
-14z"/>
<path d="M3570 9050 c-9 -6 -10 -10 -3 -10 6 0 15 5 18 10 8 12 4 12 -15 0z"/>
<path d="M3485 9016 c-27 -14 -45 -25 -40 -25 14 0 112 47 100 48 -5 0 -32
-10 -60 -23z"/>
<path d="M6680 9030 c8 -5 20 -10 25 -10 6 0 3 5 -5 10 -8 5 -19 10 -25 10 -5
0 -3 -5 5 -10z"/>
<path d="M6730 9010 c20 -13 33 -13 25 0 -3 6 -14 10 -23 10 -15 0 -15 -2 -2
-10z"/>
<path d="M3380 8970 c-9 -6 -10 -10 -3 -10 6 0 15 5 18 10 8 12 4 12 -15 0z"/>
<path d="M6840 8965 c14 -8 30 -14 35 -14 6 0 -1 6 -15 14 -14 8 -29 14 -35
14 -5 0 1 -6 15 -14z"/>
<path d="M3258 8914 c-49 -24 -88 -46 -88 -49 0 -5 179 82 189 91 15 14 -26
-3 -101 -42z"/>
<path d="M6891 8946 c3 -3 63 -34 134 -70 72 -36 163 -83 203 -106 39 -22 72
-39 72 -36 0 7 -156 94 -269 150 -92 46 -151 72 -140 62z"/>
<path d="M3078 8822 c-37 -21 -71 -42 -75 -47 -9 -10 127 63 142 76 17 16 1 9
-67 -29z"/>
<path d="M2943 8744 c-24 -14 -43 -27 -43 -30 0 -6 67 33 85 48 17 15 1 8 -42
-18z"/>
<path d="M7325 8715 c34 -28 127 -86 132 -81 4 3 -52 40 -127 83 -24 14 -24
14 -5 -2z"/>
<path d="M2845 8684 c-51 -34 -69 -52 -29 -29 35 20 82 54 74 55 -3 0 -23 -12
-45 -26z"/>
<path d="M2742 8616 c-46 -33 -53 -43 -14 -20 19 10 38 25 44 32 15 17 8 14
-30 -12z"/>
<path d="M7480 8618 c23 -23 125 -94 118 -82 -4 6 -35 30 -70 54 -35 24 -56
36 -48 28z"/>
<path d="M2589 8507 c-53 -40 -118 -92 -145 -115 l-49 -44 60 47 c33 25 99 76
148 112 75 55 96 74 85 73 -2 0 -46 -33 -99 -73z"/>
<path d="M7610 8527 c0 -3 26 -24 58 -48 31 -23 52 -36 45 -28 -14 17 -103 83
-103 76z"/>
<path d="M7765 8406 c22 -20 44 -36 49 -36 5 0 7 1 5 3 -2 2 -24 18 -49 36
l-45 33 40 -36z"/>
<path d="M7840 8343 c0 -5 13 -17 28 -27 l27 -19 -24 26 c-26 28 -31 32 -31
20z"/>
<path d="M2333 8300 c-23 -22 -39 -40 -35 -40 10 1 96 80 86 80 -5 0 -28 -18
-51 -40z"/>
<path d="M7950 8245 c19 -19 36 -35 39 -35 3 0 -10 16 -29 35 -19 19 -36 35
-39 35 -3 0 10 -16 29 -35z"/>
<path d="M2225 8198 l-50 -53 53 50 c48 46 57 55 49 55 -1 0 -25 -24 -52 -52z"/>
<path d="M8000 8203 c0 -5 21 -28 48 -52 93 -87 106 -94 32 -18 -77 79 -80 82
-80 70z"/>
<path d="M2134 8108 l-19 -23 23 19 c12 11 22 21 22 23 0 8 -8 2 -26 -19z"/>
<path d="M2073 8052 c-15 -16 -61 -67 -102 -113 -64 -74 -66 -76 -11 -19 34
36 83 86 108 113 25 26 43 47 40 47 -4 0 -19 -13 -35 -28z"/>
<path d="M8160 8047 c0 -4 10 -18 23 -30 44 -43 165 -184 236 -274 40 -51 75
-93 77 -93 9 0 -113 153 -203 257 -102 118 -133 150 -133 140z"/>
<path d="M1845 7794 c-20 -25 -36 -47 -34 -48 2 -2 21 18 42 45 48 62 42 64
-8 3z"/>
<path d="M1770 7698 c-15 -21 -17 -28 -6 -19 16 13 41 51 33 51 -2 0 -14 -15
-27 -32z"/>
<path d="M1729 7643 c-13 -16 -12 -17 4 -4 9 7 17 15 17 17 0 8 -8 3 -21 -13z"/>
<path d="M8520 7610 c11 -16 26 -33 32 -36 7 -4 -1 9 -16 29 -34 44 -46 50
-16 7z"/>
<path d="M1698 7603 c-12 -15 -119 -173 -142 -210 -4 -7 -5 -13 -2 -13 2 0 41
54 84 120 78 117 91 138 60 103z"/>
<path d="M8610 7481 c5 -11 15 -23 21 -27 6 -3 3 5 -6 20 -20 30 -30 35 -15 7z"/>
<path d="M8649 7425 c5 -11 17 -29 26 -40 l16 -20 -10 20 c-5 11 -17 29 -26
40 l-16 20 10 -20z"/>
<path d="M8700 7341 c5 -11 15 -23 21 -27 6 -3 3 5 -6 20 -20 30 -30 35 -15 7z"/>
<path d="M1490 7289 c-12 -16 -21 -32 -18 -34 2 -2 13 12 26 31 28 42 21 45
-8 3z"/>
<path d="M8759 7243 c11 -23 26 -45 33 -49 6 -4 1 10 -12 32 -33 56 -46 66
-21 17z"/>
<path d="M1437 7198 c-35 -61 -61 -115 -50 -103 13 14 85 145 79 145 -2 0 -15
-19 -29 -42z"/>
<path d="M8855 7070 c25 -49 47 -90 50 -90 3 0 -15 41 -40 90 -25 50 -47 90
-50 90 -3 0 15 -40 40 -90z"/>
<path d="M1311 6959 c-13 -22 -21 -42 -18 -45 2 -3 14 14 26 37 28 54 21 61
-8 8z"/>
<path d="M8911 6965 c0 -5 8 -26 19 -45 11 -19 19 -30 19 -25 0 6 -8 26 -19
45 -11 19 -19 31 -19 25z"/>
<path d="M1236 6794 c-26 -58 -45 -108 -43 -110 2 -2 24 44 50 103 26 59 45
108 43 110 -2 2 -25 -44 -50 -103z"/>
<path d="M8950 6871 c0 -5 5 -13 10 -16 6 -3 10 -2 10 4 0 5 -4 13 -10 16 -5
3 -10 2 -10 -4z"/>
<path d="M8970 6833 c0 -4 5 -15 10 -23 8 -13 10 -13 10 2 0 9 -4 20 -10 23
-5 3 -10 3 -10 -2z"/>
<path d="M8996 6777 c3 -10 9 -15 12 -12 3 3 0 11 -7 18 -10 9 -11 8 -5 -6z"/>
<path d="M9026 6710 c3 -14 11 -32 16 -40 6 -10 7 -7 2 10 -3 14 -11 32 -16
40 -6 10 -7 7 -2 -10z"/>
<path d="M1172 6641 c-6 -17 -9 -31 -6 -31 7 0 25 52 20 57 -2 2 -8 -10 -14
-26z"/>
<path d="M9050 6645 c0 -5 5 -17 10 -25 5 -8 10 -10 10 -5 0 6 -5 17 -10 25
-5 8 -10 11 -10 5z"/>
<path d="M9076 6580 c3 -14 11 -32 16 -40 6 -10 7 -7 2 10 -3 14 -11 32 -16
40 -6 10 -7 7 -2 -10z"/>
<path d="M1146 6575 c-9 -26 -7 -32 5 -12 6 10 9 21 6 23 -2 3 -7 -2 -11 -11z"/>
<path d="M1112 6478 c-30 -85 -27 -99 4 -19 13 36 23 68 22 73 -2 5 -13 -20
-26 -54z"/>
<path d="M9117 6465 c3 -16 9 -37 14 -45 15 -27 10 11 -6 45 l-14 30 6 -30z"/>
<path d="M9141 6384 c0 -11 3 -14 6 -6 3 7 2 16 -1 19 -3 4 -6 -2 -5 -13z"/>
<path d="M9161 6320 c0 -8 4 -24 9 -35 5 -13 9 -14 9 -5 0 8 -4 24 -9 35 -5
13 -9 14 -9 5z"/>
<path d="M1056 6294 c-4 -14 -5 -28 -3 -31 3 -2 8 8 11 23 4 14 5 28 3 31 -3
2 -8 -8 -11 -23z"/>
<path d="M9181 6244 c0 -11 3 -14 6 -6 3 7 2 16 -1 19 -3 4 -6 -2 -5 -13z"/>
<path d="M1041 6234 c0 -11 3 -14 6 -6 3 7 2 16 -1 19 -3 4 -6 -2 -5 -13z"/>
<path d="M9191 6210 c0 -8 4 -24 9 -35 5 -13 9 -14 9 -5 0 8 -4 24 -9 35 -5
13 -9 14 -9 5z"/>
<path d="M1025 6180 c-4 -17 -5 -34 -2 -36 2 -3 7 10 11 27 8 42 0 50 -9 9z"/>
<path d="M9212 6135 c0 -11 3 -29 8 -40 11 -25 11 1 0 35 -6 20 -8 21 -8 5z"/>
<path d="M3493 6123 c9 -2 25 -2 35 0 9 3 1 5 -18 5 -19 0 -27 -2 -17 -5z"/>
<path d="M4518 6123 c34 -2 90 -2 125 0 34 2 6 3 -63 3 -69 0 -97 -1 -62 -3z"/>
<path d="M6415 6120 c39 -3 80 -12 93 -18 12 -7 22 -10 22 -7 0 15 -75 35
-127 34 l-58 -2 70 -7z"/>
<path d="M7403 6123 c31 -2 83 -2 115 0 31 2 5 3 -58 3 -63 0 -89 -1 -57 -3z"/>
<path d="M1848 6104 c-39 -21 -35 -28 5 -8 37 19 44 24 31 24 -5 -1 -21 -8
-36 -16z"/>
<path d="M1984 6100 c22 -11 42 -20 45 -20 12 0 -36 28 -59 34 -14 4 -8 -2 14
-14z"/>
<path d="M4418 6113 c6 -2 18 -2 25 0 6 3 1 5 -13 5 -14 0 -19 -2 -12 -5z"/>
<path d="M4733 6113 c9 -2 23 -2 30 0 6 3 -1 5 -18 5 -16 0 -22 -2 -12 -5z"/>
<path d="M5893 6113 c9 -2 25 -2 35 0 9 3 1 5 -18 5 -19 0 -27 -2 -17 -5z"/>
<path d="M5960 6116 c0 -2 9 -6 20 -9 11 -3 18 -1 14 4 -5 9 -34 13 -34 5z"/>
<path d="M6236 6104 c-71 -22 -51 -26 24 -4 36 10 56 19 45 19 -11 0 -42 -7
-69 -15z"/>
<path d="M7308 6113 c6 -2 18 -2 25 0 6 3 1 5 -13 5 -14 0 -19 -2 -12 -5z"/>
<path d="M7618 6113 c7 -3 16 -2 19 1 4 3 -2 6 -13 5 -11 0 -14 -3 -6 -6z"/>
<path d="M4350 6100 c-11 -8 -7 -9 15 -4 37 8 45 14 19 14 -10 0 -26 -5 -34
-10z"/>
<path d="M4800 6100 c34 -11 60 -11 35 0 -11 5 -29 8 -40 8 -16 0 -15 -2 5 -8z"/>
<path d="M5844 6094 c-18 -14 -18 -15 4 -4 12 6 22 13 22 15 0 8 -5 6 -26 -11z"/>
<path d="M7248 6103 c7 -3 16 -2 19 1 4 3 -2 6 -13 5 -11 0 -14 -3 -6 -6z"/>
<path d="M7658 6103 c6 -2 18 -2 25 0 6 3 1 5 -13 5 -14 0 -19 -2 -12 -5z"/>
<path d="M3370 6055 c-24 -25 -42 -45 -39 -45 3 0 25 20 49 45 24 25 42 45 39
45 -3 0 -25 -20 -49 -45z"/>
<path d="M6034 6072 c14 -19 26 -38 26 -43 0 -14 24 -11 46 7 18 14 18 15 -4
4 -21 -10 -27 -7 -59 27 -28 30 -30 31 -9 5z"/>
<path d="M7708 6093 c7 -3 16 -2 19 1 4 3 -2 6 -13 5 -11 0 -14 -3 -6 -6z"/>
<path d="M1001 6074 c0 -11 3 -14 6 -6 3 7 2 16 -1 19 -3 4 -6 -2 -5 -13z"/>
<path d="M4868 6083 c7 -3 16 -2 19 1 4 3 -2 6 -13 5 -11 0 -14 -3 -6 -6z"/>
<path d="M6561 6064 c13 -17 26 -30 28 -27 3 2 -8 16 -24 31 l-28 27 24 -31z"/>
<path d="M7145 6075 c-39 -17 -21 -18 25 0 19 7 28 14 20 14 -8 0 -28 -6 -45
-14z"/>
<path d="M7755 6080 c27 -12 43 -12 25 0 -8 5 -22 9 -30 9 -10 0 -8 -3 5 -9z"/>
<path d="M4920 6068 c14 -6 55 -27 93 -45 37 -18 67 -31 67 -28 0 7 -130 71
-160 79 l-25 6 25 -12z"/>
<path d="M6155 6070 c-3 -6 1 -7 9 -4 18 7 21 14 7 14 -6 0 -13 -4 -16 -10z"/>
<path d="M2040 6067 c0 -1 35 -36 78 -77 l77 -75 -75 78 c-69 71 -80 82 -80
74z"/>
<path d="M3622 6055 c4 -6 12 -22 17 -36 6 -15 10 -18 10 -8 1 9 -7 25 -16 36
-10 10 -15 14 -11 8z"/>
<path d="M4230 6060 c-8 -5 -10 -10 -5 -10 6 0 17 5 25 10 8 5 11 10 5 10 -5
0 -17 -5 -25 -10z"/>
<path d="M9232 6050 c0 -14 4 -36 8 -50 6 -20 8 -21 8 -5 0 11 -4 34 -8 50 -7
27 -8 27 -8 5z"/>
<path d="M1795 6049 c-4 -6 -5 -12 -2 -15 2 -3 7 2 10 11 7 17 1 20 -8 4z"/>
<path d="M7038 6029 c-32 -16 -58 -32 -58 -34 0 -5 119 52 129 61 13 12 -22
-1 -71 -27z"/>
<path d="M7870 6035 c25 -13 50 -24 55 -24 6 0 -10 11 -35 24 -25 13 -49 24
-55 24 -5 0 10 -11 35 -24z"/>
<path d="M991 6024 c0 -11 3 -14 6 -6 3 7 2 16 -1 19 -3 4 -6 -2 -5 -13z"/>
<path d="M4165 6030 c-3 -6 1 -7 9 -4 18 7 21 14 7 14 -6 0 -13 -4 -16 -10z"/>
<path d="M5780 6014 c-12 -30 -14 -1683 -2 -1701 4 -6 6 368 4 830 -1 522 1
852 7 869 12 35 4 37 -9 2z"/>
<path d="M4110 5999 c-17 -13 -18 -17 -5 -10 33 17 51 31 40 31 -5 0 -21 -10
-35 -21z"/>
<path d="M7940 6007 c0 -2 26 -21 58 -41 38 -25 47 -29 27 -11 -29 25 -85 59
-85 52z"/>
<path d="M970 5926 c-7 -40 -11 -79 -8 -86 2 -7 10 24 17 69 16 104 8 118 -9
17z"/>
<path d="M3279 5963 l-34 -38 38 34 c20 19 37 36 37 38 0 8 -8 0 -41 -34z"/>
<path d="M5090 5986 c0 -3 9 -10 20 -16 11 -6 20 -8 20 -6 0 3 -9 10 -20 16
-11 6 -20 8 -20 6z"/>
<path d="M6601 5974 c0 -11 3 -14 6 -6 3 7 2 16 -1 19 -3 4 -6 -2 -5 -13z"/>
<path d="M6922 5960 c-23 -17 -42 -33 -42 -36 0 -4 56 34 85 58 23 20 -6 5
-43 -22z"/>
<path d="M4049 5959 l-24 -20 28 17 c15 9 27 18 27 20 0 8 -8 4 -31 -17z"/>
<path d="M9252 5940 c0 -14 2 -19 5 -12 2 6 2 18 0 25 -3 6 -5 1 -5 -13z"/>
<path d="M1780 5939 c0 -23 61 -91 274 -304 174 -175 173 -174 -28 34 -114
118 -216 231 -226 250 -11 20 -19 29 -20 20z"/>
<path d="M5233 5870 c90 -84 145 -157 204 -265 18 -33 33 -56 33 -52 0 18 -64
132 -106 187 -47 62 -171 187 -201 203 -10 6 22 -27 70 -73z"/>
<path d="M3953 5888 c-66 -58 -142 -142 -179 -200 -42 -66 -26 -54 25 18 45
64 108 132 191 203 19 17 32 31 29 31 -3 0 -33 -24 -66 -52z"/>
<path d="M6591 5924 c0 -11 3 -14 6 -6 3 7 2 16 -1 19 -3 4 -6 -2 -5 -13z"/>
<path d="M8095 5892 c22 -23 44 -41 48 -42 14 0 -2 18 -46 51 l-42 32 40 -41z"/>
<path d="M3110 5793 l-125 -128 128 125 c70 69 127 126 127 127 0 8 -14 -6
-130 -124z"/>
<path d="M6793 5852 c-70 -64 -141 -159 -184 -244 -43 -85 -35 -84 11 1 50 91
118 180 190 249 30 28 53 52 50 52 -3 0 -33 -26 -67 -58z"/>
<path d="M9260 5891 c0 -11 4 -22 9 -25 4 -3 6 6 3 19 -5 30 -12 33 -12 6z"/>
<path d="M2225 5880 c10 -11 20 -20 23 -20 3 0 -3 9 -13 20 -10 11 -20 20 -23
20 -3 0 3 -9 13 -20z"/>
<path d="M3580 5855 c-18 -19 -32 -36 -29 -38 2 -2 19 14 38 35 42 48 36 50
-9 3z"/>
<path d="M6536 5848 c-22 -17 -49 -23 -120 -28 -81 -7 -186 -37 -186 -54 0 -3
21 4 47 16 29 13 81 23 138 28 72 5 99 11 123 29 18 12 32 24 32 27 0 6 -3 5
-34 -18z"/>
<path d="M2290 5815 c19 -19 36 -35 39 -35 3 0 -10 16 -29 35 -19 19 -36 35
-39 35 -3 0 10 -16 29 -35z"/>
<path d="M9272 5825 c0 -16 2 -22 5 -12 2 9 2 23 0 30 -3 6 -5 -1 -5 -18z"/>
<path d="M4568 5823 c18 -2 45 -2 60 0 15 2 0 4 -33 4 -33 0 -45 -2 -27 -4z"/>
<path d="M7453 5823 c15 -2 37 -2 50 0 12 2 0 4 -28 4 -27 0 -38 -2 -22 -4z"/>
<path d="M949 5808 c0 -7 -4 -35 -8 -61 -4 -26 -5 -44 -1 -40 9 10 23 113 15
113 -3 0 -5 -6 -6 -12z"/>
<path d="M4463 5813 c9 -2 23 -2 30 0 6 3 -1 5 -18 5 -16 0 -22 -2 -12 -5z"/>
<path d="M4710 5810 c14 -4 34 -8 45 -8 16 0 15 2 -5 8 -14 4 -34 8 -45 8 -16
0 -15 -2 5 -8z"/>
<path d="M7315 5810 c-16 -7 -17 -9 -3 -9 9 -1 20 4 23 9 7 11 7 11 -20 0z"/>
<path d="M7363 5813 c9 -2 23 -2 30 0 6 3 -1 5 -18 5 -16 0 -22 -2 -12 -5z"/>
<path d="M7563 5813 c9 -2 23 -2 30 0 6 3 -1 5 -18 5 -16 0 -22 -2 -12 -5z"/>
<path d="M4418 5803 c7 -3 16 -2 19 1 4 3 -2 6 -13 5 -11 0 -14 -3 -6 -6z"/>
<path d="M7618 5803 c7 -3 16 -2 19 1 4 3 -2 6 -13 5 -11 0 -14 -3 -6 -6z"/>
<path d="M4795 5790 c27 -12 43 -12 25 0 -8 5 -22 9 -30 9 -10 0 -8 -3 5 -9z"/>
<path d="M7268 5793 c7 -3 16 -2 19 1 4 3 -2 6 -13 5 -11 0 -14 -3 -6 -6z"/>
<path d="M7699 5779 c24 -11 46 -18 48 -15 4 4 -73 36 -85 35 -4 0 13 -9 37
-20z"/>
<path d="M8215 5770 c17 -19 45 -59 64 -88 18 -28 35 -52 38 -52 11 0 -80 131
-108 155 -17 14 -15 10 6 -15z"/>
<path d="M4310 5770 c-46 -25 -34 -25 21 0 24 11 37 19 29 19 -8 0 -31 -8 -50
-19z"/>
<path d="M9281 5774 c0 -11 3 -14 6 -6 3 7 2 16 -1 19 -3 4 -6 -2 -5 -13z"/>
<path d="M4861 5766 c10 -9 69 -36 69 -32 0 6 -55 36 -66 36 -4 0 -5 -2 -3 -4z"/>
<path d="M7131 5738 c-58 -34 -159 -123 -193 -171 -12 -16 14 6 58 50 45 46
107 95 144 116 36 20 61 36 55 36 -5 0 -34 -14 -64 -31z"/>
<path d="M3310 5573 c-102 -104 -197 -201 -210 -218 -31 -38 -33 -39 205 203
109 111 197 202 194 202 -2 0 -88 -84 -189 -187z"/>
<path d="M6173 5718 c-40 -42 -79 -105 -70 -114 2 -3 10 10 18 28 7 18 33 54
57 81 55 58 51 63 -5 5z"/>
<path d="M2460 5645 c58 -61 107 -109 110 -107 2 1 -45 51 -105 110 l-110 107
105 -110z"/>
<path d="M4214 5719 c-49 -31 -154 -127 -154 -141 0 -4 18 12 40 36 23 24 67
61 98 82 63 42 78 54 71 54 -3 0 -27 -14 -55 -31z"/>
<path d="M7800 5736 c0 -3 9 -10 20 -16 11 -6 20 -8 20 -6 0 3 -9 10 -20 16
-11 6 -20 8 -20 6z"/>
<path d="M4940 5727 c0 -3 12 -12 26 -22 15 -9 23 -12 20 -6 -7 11 -46 35 -46
28z"/>
<path d="M9292 5705 c0 -16 2 -22 5 -12 2 9 2 23 0 30 -3 6 -5 -1 -5 -18z"/>
<path d="M932 5665 c0 -16 2 -22 5 -12 2 9 2 23 0 30 -3 6 -5 -1 -5 -18z"/>
<path d="M5000 5689 c0 -8 102 -110 106 -106 2 2 -21 28 -51 57 -30 30 -55 52
-55 49z"/>
<path d="M7880 5689 c0 -3 28 -35 63 -70 34 -35 72 -77 85 -94 13 -16 10 -10
-7 15 -27 41 -141 162 -141 149z"/>
<path d="M9300 5606 c0 -19 3 -37 8 -40 4 -2 6 13 4 35 -5 48 -12 51 -12 5z"/>
<path d="M3709 5569 c-16 -34 -29 -63 -27 -65 2 -2 18 26 36 61 17 36 30 65
27 65 -3 0 -19 -27 -36 -61z"/>
<path d="M8321 5615 c0 -5 11 -30 24 -55 13 -25 24 -40 24 -35 0 6 -11 30 -24
55 -13 25 -24 41 -24 35z"/>
<path d="M923 5575 c0 -22 2 -30 4 -17 2 12 2 30 0 40 -3 9 -5 -1 -4 -23z"/>
<path d="M2824 5500 l-108 -110 -66 62 -65 63 65 -68 65 -67 112 112 c62 62
113 114 113 115 0 8 -16 -7 -116 -107z"/>
<path d="M6086 5559 c-3 -17 -5 -208 -4 -423 l2 -391 6 420 c3 231 4 421 4
423 -1 1 -4 -12 -8 -29z"/>
<path d="M5148 5506 c20 -35 39 -62 41 -61 4 5 -58 113 -69 120 -5 3 8 -24 28
-59z"/>
<path d="M5475 5524 c3 -12 12 -41 20 -65 12 -38 14 -39 8 -9 -3 19 -12 49
-19 65 -8 17 -11 21 -9 9z"/>
<path d="M9311 5495 c0 -27 3 -56 8 -63 5 -8 6 8 4 40 -6 73 -11 83 -12 23z"/>
<path d="M6563 5515 c-3 -9 -3 -18 -1 -21 3 -3 8 4 11 16 6 23 -1 27 -10 5z"/>
<path d="M6895 5504 c-9 -14 -15 -27 -13 -30 2 -2 12 10 22 26 21 37 15 40 -9
4z"/>
<path d="M913 5455 c0 -33 2 -45 4 -27 2 18 2 45 0 60 -2 15 -4 0 -4 -33z"/>
<path d="M8377 5489 c4 -13 8 -18 11 -10 2 7 -1 18 -6 23 -8 8 -9 4 -5 -13z"/>
<path d="M3974 5443 c-14 -31 -28 -69 -31 -85 l-5 -28 643 2 644 3 -637 2
c-364 2 -638 7 -638 12 0 5 13 41 29 80 34 84 31 95 -5 14z"/>
<path d="M3666 5475 c-3 -9 -6 -22 -5 -28 0 -7 5 -1 10 12 5 13 8 26 5 28 -2
2 -6 -3 -10 -12z"/>
<path d="M8056 5477 c3 -10 9 -15 12 -12 3 3 0 11 -7 18 -10 9 -11 8 -5 -6z"/>
<path d="M6860 5439 c-7 -11 -10 -23 -7 -25 2 -2 9 7 15 21 14 30 7 33 -8 4z"/>
<path d="M2241 5443 c0 -5 14 -19 32 -32 l32 -25 -29 32 c-31 33 -36 37 -35
25z"/>
<path d="M8076 5437 c3 -10 9 -15 12 -12 3 3 0 11 -7 18 -10 9 -11 8 -5 -6z"/>
<path d="M3641 5386 c-6 -25 -11 -53 -10 -63 0 -10 7 9 15 41 8 33 13 61 10
63 -2 2 -9 -16 -15 -41z"/>
<path d="M5192 5425 c0 -5 6 -26 13 -45 7 -19 14 -28 14 -20 0 8 -6 29 -14 45
-7 17 -13 26 -13 20z"/>
<path d="M8401 5420 c0 -8 4 -24 9 -35 5 -13 9 -14 9 -5 0 8 -4 24 -9 35 -5
13 -9 14 -9 5z"/>
<path d="M6526 5394 c-4 -14 -5 -28 -3 -31 3 -2 8 8 11 23 4 14 5 28 3 31 -3
2 -8 -8 -11 -23z"/>
<path d="M8091 5405 c1 -19 18 -51 18 -35 0 8 -4 22 -9 30 -5 8 -9 11 -9 5z"/>
<path d="M5512 5375 c0 -16 2 -22 5 -12 2 9 2 23 0 30 -3 6 -5 -1 -5 -18z"/>
<path d="M6831 5369 c-6 -18 -11 -37 -10 -43 0 -6 7 7 15 28 8 22 12 41 10 43
-2 2 -9 -10 -15 -28z"/>
<path d="M7448 5393 c18 -2 45 -2 60 0 15 2 0 4 -33 4 -33 0 -45 -2 -27 -4z"/>
<path d="M9324 5155 c0 -137 2 -195 3 -128 2 67 2 179 0 250 -1 70 -3 16 -3
-122z"/>
<path d="M7541 5386 c10 -9 69 -36 69 -32 0 6 -55 36 -66 36 -4 0 -5 -2 -3 -4z"/>
<path d="M7295 5329 c-39 -36 -86 -122 -73 -134 3 -3 10 13 17 36 8 26 31 60
61 90 60 59 56 64 -5 8z"/>
<path d="M2320 5356 c0 -2 8 -10 18 -17 15 -13 16 -12 3 4 -13 16 -21 21 -21
13z"/>
<path d="M7646 5319 c16 -20 34 -44 41 -55 6 -10 12 -14 12 -8 1 6 -17 31 -40
55 -30 32 -33 34 -13 8z"/>
<path d="M8111 5334 c0 -11 3 -14 6 -6 3 7 2 16 -1 19 -3 4 -6 -2 -5 -13z"/>
<path d="M8422 5330 c0 -14 2 -19 5 -12 2 6 2 18 0 25 -3 6 -5 1 -5 -13z"/>
<path d="M5523 5290 c0 -30 2 -43 4 -27 2 15 2 39 0 55 -2 15 -4 2 -4 -28z"/>
<path d="M6506 5299 c-4 -23 -5 -44 -2 -46 2 -2 7 14 11 37 4 23 5 43 2 46 -2
3 -7 -14 -11 -37z"/>
<path d="M2992 5256 c-40 -41 -72 -78 -72 -82 1 -11 57 -74 67 -74 4 0 -8 16
-27 35 -38 39 -41 32 53 127 33 33 57 61 55 64 -3 2 -37 -29 -76 -70z"/>
<path d="M904 5155 c0 -93 2 -133 3 -88 2 45 2 122 0 170 -1 48 -3 12 -3 -82z"/>
<path d="M2432 5245 c74 -77 76 -81 61 -102 -9 -13 -13 -23 -10 -23 2 0 12 11
20 23 15 23 13 26 -66 103 l-82 79 77 -80z"/>
<path d="M3623 5265 c0 -22 2 -30 4 -17 2 12 2 30 0 40 -3 9 -5 -1 -4 -23z"/>
<path d="M6806 5269 c-3 -17 -5 -46 -5 -63 1 -18 5 -7 10 28 9 63 6 88 -5 35z"/>
<path d="M8432 5270 c0 -19 2 -27 5 -17 2 9 2 25 0 35 -3 9 -5 1 -5 -18z"/>
<path d="M8133 5240 c0 -25 2 -35 4 -22 2 12 2 32 0 45 -2 12 -4 2 -4 -23z"/>
<path d="M5511 5213 c-1 -6 -4 -20 -7 -30 -5 -17 -5 -17 6 0 6 10 9 23 6 30
-3 9 -5 9 -5 0z"/>
<path d="M7713 5150 c0 -36 2 -50 4 -32 2 17 2 47 0 65 -2 17 -4 3 -4 -33z"/>
<path d="M8436 5111 c-4 -57 -5 -105 -3 -108 7 -6 20 182 15 199 -3 7 -8 -34
-12 -91z"/>
<path d="M7211 5149 c0 -19 5 -43 10 -54 6 -13 7 -4 3 30 -8 60 -14 72 -13 24z"/>
<path d="M5485 5149 c-4 -6 -5 -12 -2 -15 2 -3 7 2 10 11 7 17 1 20 -8 4z"/>
<path d="M6803 5095 c0 -27 2 -38 4 -22 2 15 2 37 0 50 -2 12 -4 0 -4 -28z"/>
<path d="M2440 5089 c-14 -15 -115 -119 -225 -231 l-200 -203 230 227 c126
125 227 229 225 230 -3 2 -16 -8 -30 -23z"/>
<path d="M5435 5094 c-18 -16 -22 -22 -9 -15 18 9 53 42 43 41 -2 -1 -17 -12
-34 -26z"/>
<path d="M8128 5050 c-4 -30 -10 -66 -13 -80 -2 -14 2 -5 10 20 9 25 14 61 13
80 -3 29 -4 26 -10 -20z"/>
<path d="M3621 5059 c1 -19 5 -47 10 -64 5 -20 6 -9 2 30 -6 66 -14 88 -12 34z"/>
<path d="M6505 5028 c3 -36 7 -72 10 -80 2 -7 9 -33 15 -57 6 -23 13 -41 15
-39 3 2 0 22 -7 44 -6 21 -16 75 -24 119 l-13 80 4 -67z"/>
<path d="M7687 5047 c-9 -17 -25 -43 -34 -57 -17 -24 -17 -24 0 -11 19 15 61
90 54 97 -2 2 -11 -11 -20 -29z"/>
<path d="M3120 4955 c63 -63 117 -115 119 -115 9 0 -204 217 -219 224 -8 4 37
-45 100 -109z"/>
<path d="M5355 5054 c-40 -14 -40 -14 -5 -9 19 3 39 10 44 15 12 12 12 12 -39
-6z"/>
<path d="M7230 5064 c0 -14 54 -90 72 -100 7 -4 3 4 -8 17 -12 13 -31 40 -43
59 -11 19 -21 30 -21 24z"/>
<path d="M3930 5023 c0 -13 3 -14 8 -6 6 10 159 13 688 16 l679 2 -687 3
c-650 2 -688 1 -688 -15z"/>
<path d="M6816 4995 c9 -61 60 -174 107 -237 23 -31 43 -55 45 -53 2 2 -13 24
-32 50 -42 55 -82 135 -108 220 -14 46 -17 51 -12 20z"/>
<path d="M3941 4974 c0 -11 3 -14 6 -6 3 7 2 16 -1 19 -3 4 -6 -2 -5 -13z"/>
<path d="M8416 4957 c-10 -53 -39 -142 -69 -209 -14 -32 -24 -58 -21 -58 19 0
111 265 101 293 -2 7 -7 -5 -11 -26z"/>
<path d="M3642 4940 c0 -14 2 -19 5 -12 2 6 2 18 0 25 -3 6 -5 1 -5 -13z"/>
<path d="M7320 4950 c0 -8 79 -45 84 -39 2 2 -16 13 -40 25 -24 12 -44 18 -44
14z"/>
<path d="M7570 4934 c-25 -13 -41 -23 -37 -24 15 0 75 28 81 39 4 6 6 10 4 10
-2 -1 -23 -12 -48 -25z"/>
<path d="M3950 4945 c0 -5 5 -17 10 -25 5 -8 10 -10 10 -5 0 6 -5 17 -10 25
-5 8 -10 11 -10 5z"/>
<path d="M2490 4723 c-118 -119 -198 -203 -178 -186 20 17 117 113 214 212 98
100 183 181 190 181 7 0 18 -9 24 -20 6 -11 16 -20 22 -20 6 0 1 11 -12 25
-13 14 -28 25 -34 25 -6 0 -108 -98 -226 -217z"/>
<path d="M8063 4851 c-23 -47 -35 -77 -26 -66 19 24 77 145 72 149 -2 2 -23
-35 -46 -83z"/>
<path d="M7443 4903 c15 -2 37 -2 50 0 12 2 0 4 -28 4 -27 0 -38 -2 -22 -4z"/>
<path d="M913 4855 c0 -27 2 -38 4 -22 2 15 2 37 0 50 -2 12 -4 0 -4 -28z"/>
<path d="M3970 4895 c0 -5 5 -17 10 -25 5 -8 10 -10 10 -5 0 6 -5 17 -10 25
-5 8 -10 11 -10 5z"/>
<path d="M2886 4765 c62 -63 117 -115 121 -115 10 0 -196 208 -218 220 -9 5
35 -42 97 -105z"/>
<path d="M3661 4870 c0 -8 6 -28 14 -45 17 -39 18 -21 0 25 -7 19 -14 28 -14
20z"/>
<path d="M9313 4815 c0 -27 2 -38 4 -22 2 15 2 37 0 50 -2 12 -4 0 -4 -28z"/>
<path d="M4009 4814 c11 -22 27 -47 36 -54 16 -13 8 1 -43 76 -7 11 -3 1 7
-22z"/>
<path d="M6551 4835 c1 -19 18 -51 18 -35 0 8 -4 22 -9 30 -5 8 -9 11 -9 5z"/>
<path d="M3270 4805 c13 -14 26 -25 28 -25 3 0 -5 11 -18 25 -13 14 -26 25
-28 25 -3 0 5 -11 18 -25z"/>
<path d="M5205 4805 c-39 -18 -31 -18 25 -1 25 8 36 15 25 15 -11 0 -33 -6
-50 -14z"/>
<path d="M5320 4791 c14 -11 28 -21 31 -21 8 0 37 -69 42 -100 4 -24 4 -24 6
3 2 41 -32 99 -71 120 l-33 19 25 -21z"/>
<path d="M923 4740 c0 -30 2 -43 4 -27 2 15 2 39 0 55 -2 15 -4 2 -4 -28z"/>
<path d="M3690 4786 c0 -10 60 -126 65 -126 3 0 -9 28 -26 63 -33 65 -39 75
-39 63z"/>
<path d="M6581 4752 c6 -18 15 -35 20 -38 5 -3 4 7 -3 23 -17 41 -30 53 -17
15z"/>
<path d="M5106 4732 l-19 -27 24 22 c12 12 21 24 18 27 -2 2 -13 -8 -23 -22z"/>
<path d="M7970 4709 c-24 -28 -71 -72 -104 -96 -73 -54 -82 -62 -38 -37 45 26
124 96 162 144 46 57 31 49 -20 -11z"/>
<path d="M9295 4670 c-4 -45 -5 -83 -2 -86 2 -3 8 32 11 77 4 44 5 83 3 85 -3
3 -8 -31 -12 -76z"/>
<path d="M3355 4720 c10 -11 20 -20 23 -20 3 0 -3 9 -13 20 -10 11 -20 20 -23
20 -3 0 3 -9 13 -20z"/>
<path d="M4080 4713 c31 -43 200 -177 200 -158 0 2 -18 16 -40 30 -22 14 -72
55 -112 93 -40 37 -61 53 -48 35z"/>
<path d="M6082 4559 c-1 -103 -4 -202 -7 -220 l-5 -34 10 32 c6 19 9 112 7
220 l-2 188 -3 -186z"/>
<path d="M5040 4661 c-19 -20 -51 -49 -70 -64 -29 -24 -27 -23 11 3 49 33 120
101 103 99 -5 -1 -25 -18 -44 -38z"/>
<path d="M6610 4691 c0 -6 4 -13 10 -16 6 -3 7 1 4 9 -7 18 -14 21 -14 7z"/>
<path d="M6980 4693 c0 -5 10 -18 23 -29 l22 -19 -20 25 c-11 14 -21 27 -22
29 -2 2 -3 0 -3 -6z"/>
<path d="M932 4655 c-1 -16 3 -48 7 -70 11 -53 12 -5 2 55 -6 34 -9 37 -9 15z"/>
<path d="M3408 4665 c6 -11 34 -42 63 -70 l53 -50 -54 60 c-74 82 -74 83 -62
60z"/>
<path d="M8300 4660 c-6 -11 -8 -20 -6 -20 3 0 10 9 16 20 6 11 8 20 6 20 -3
0 -10 -9 -16 -20z"/>
<path d="M6647 4629 c10 -17 24 -36 32 -42 8 -7 2 7 -14 31 -32 49 -45 57 -18
11z"/>
<path d="M1980 4621 c-14 -14 -56 -60 -95 -101 -56 -61 -51 -57 30 22 54 54
97 99 95 101 -3 3 -16 -7 -30 -22z"/>
<path d="M3760 4640 c0 -5 5 -10 11 -10 5 0 7 5 4 10 -3 6 -8 10 -11 10 -2 0
-4 -4 -4 -10z"/>
<path d="M7060 4621 c19 -17 39 -31 44 -31 5 0 7 1 5 3 -2 2 -22 15 -44 31
l-40 27 35 -30z"/>
<path d="M3020 4635 c1 -6 35 -44 77 -85 46 -46 64 -59 46 -35 -39 50 -123
132 -123 120z"/>
<path d="M5372 4608 c-10 -30 -10 -31 3 -14 13 17 21 46 12 46 -1 0 -8 -15
-15 -32z"/>
<path d="M8220 4548 c-69 -87 -170 -178 -254 -229 -28 -17 -43 -28 -33 -25 82
26 287 216 351 324 17 28 -3 7 -64 -70z"/>
<path d="M3788 4605 c39 -73 206 -238 277 -271 17 -8 22 -9 11 -2 -74 51 -182
147 -226 205 -64 81 -76 94 -62 68z"/>
<path d="M4865 4539 c-33 -16 -49 -27 -35 -23 30 8 100 42 100 49 0 6 6 8 -65
-26z"/>
<path d="M6709 4546 c28 -38 91 -106 122 -131 13 -11 -7 14 -45 55 -93 100
-103 110 -77 76z"/>
<path d="M4290 4550 c0 -5 5 -10 11 -10 5 0 7 5 4 10 -3 6 -8 10 -11 10 -2 0
-4 -4 -4 -10z"/>
<path d="M9275 4500 c-4 -34 -5 -63 -2 -66 2 -3 7 23 11 57 4 33 5 63 3 66 -3
2 -8 -23 -12 -57z"/>
<path d="M7180 4545 c0 -7 73 -36 82 -33 5 2 -11 11 -37 20 -25 9 -45 15 -45
13z"/>
<path d="M952 4510 c0 -19 2 -27 5 -17 2 9 2 25 0 35 -3 9 -5 1 -5 -18z"/>
<path d="M5255 4452 c-43 -48 -66 -76 -51 -62 51 44 146 151 134 150 -2 -1
-39 -40 -83 -88z"/>
<path d="M7720 4530 c-8 -5 -10 -10 -5 -10 6 0 17 5 25 10 8 5 11 10 5 10 -5
0 -17 -5 -25 -10z"/>
<path d="M3560 4505 c13 -14 26 -25 28 -25 3 0 -5 11 -18 25 -13 14 -26 25
-28 25 -3 0 5 -11 18 -25z"/>
<path d="M4350 4520 c8 -5 20 -10 25 -10 6 0 3 5 -5 10 -8 5 -19 10 -25 10 -5
0 -3 -5 5 -10z"/>
<path d="M4398 4503 c7 -3 16 -2 19 1 4 3 -2 6 -13 5 -11 0 -14 -3 -6 -6z"/>
<path d="M7295 4500 c11 -5 29 -8 40 -8 16 0 15 2 -5 8 -34 11 -60 11 -35 0z"/>
<path d="M7625 4500 c-13 -5 -14 -9 -5 -9 8 0 24 4 35 9 13 5 14 9 5 9 -8 0
-24 -4 -35 -9z"/>
<path d="M4748 4493 c7 -3 16 -2 19 1 4 3 -2 6 -13 5 -11 0 -14 -3 -6 -6z"/>
<path d="M4483 4483 c9 -2 23 -2 30 0 6 3 -1 5 -18 5 -16 0 -22 -2 -12 -5z"/>
<path d="M4683 4483 c9 -2 25 -2 35 0 9 3 1 5 -18 5 -19 0 -27 -2 -17 -5z"/>
<path d="M7388 4483 c18 -2 45 -2 60 0 15 2 0 4 -33 4 -33 0 -45 -2 -27 -4z"/>
<path d="M7513 4483 c15 -2 37 -2 50 0 12 2 0 4 -28 4 -27 0 -38 -2 -22 -4z"/>
<path d="M4578 4473 c12 -2 32 -2 45 0 12 2 2 4 -23 4 -25 0 -35 -2 -22 -4z"/>
<path d="M2225 4460 c-3 -6 1 -7 9 -4 18 7 21 14 7 14 -6 0 -13 -4 -16 -10z"/>
<path d="M3221 4425 c43 -45 63 -60 38 -27 -27 36 -63 72 -71 72 -5 0 10 -20
33 -45z"/>
<path d="M3590 4466 c0 -2 8 -10 18 -17 15 -13 16 -12 3 4 -13 16 -21 21 -21
13z"/>
<path d="M962 4440 c0 -14 2 -19 5 -12 2 6 2 18 0 25 -3 6 -5 1 -5 -13z"/>
<path d="M1803 4428 c-12 -15 -24 -48 -18 -48 2 0 10 14 19 30 15 32 15 38 -1
18z"/>
<path d="M2194 4418 l-19 -23 23 19 c21 18 27 26 19 26 -2 0 -12 -10 -23 -22z"/>
<path d="M3631 4410 c14 -31 19 -36 19 -24 0 6 -7 19 -16 30 -14 18 -14 18 -3
-6z"/>
<path d="M9262 4395 c0 -16 2 -22 5 -12 2 9 2 23 0 30 -3 6 -5 -1 -5 -18z"/>
<path d="M2073 4300 c-51 -50 -85 -86 -75 -81 18 10 180 171 172 171 -3 0 -46
-41 -97 -90z"/>
<path d="M6880 4375 c0 -6 121 -87 125 -83 2 1 -26 22 -61 46 -35 23 -64 40
-64 37z"/>
<path d="M3320 4324 c25 -27 47 -49 50 -47 2 2 -18 25 -45 51 l-49 47 44 -51z"/>
<path d="M5149 4353 c-13 -16 -12 -17 4 -4 16 13 21 21 13 21 -2 0 -10 -8 -17
-17z"/>
<path d="M981 4335 c0 -11 6 -42 13 -70 18 -65 19 -37 1 35 -7 30 -14 46 -14
35z"/>
<path d="M9227 4233 c-15 -64 -26 -118 -23 -120 2 -2 16 48 31 112 15 64 25
118 23 121 -3 2 -17 -49 -31 -113z"/>
<path d="M5060 4300 c-36 -22 -62 -40 -57 -40 11 0 116 61 123 71 8 13 5 12
-66 -31z"/>
<path d="M1780 4310 c0 -17 36 -80 46 -80 4 0 2 6 -4 13 -7 7 -18 29 -26 48
-9 19 -15 27 -16 19z"/>
<path d="M3640 4307 c0 -29 -60 -86 -102 -98 -22 -5 -38 -12 -36 -14 2 -3 20
0 40 5 53 15 125 96 104 117 -3 4 -6 -1 -6 -10z"/>
<path d="M6047 4267 l-17 -32 20 24 c17 20 26 41 18 41 -2 0 -11 -15 -21 -33z"/>
<path d="M4157 4279 c7 -7 15 -10 18 -7 3 3 -2 9 -12 12 -14 6 -15 5 -6 -5z"/>
<path d="M5790 4283 c0 -12 49 -57 77 -72 30 -15 92 -13 128 5 17 8 21 11 10
8 -82 -26 -148 -12 -190 38 -14 16 -25 26 -25 21z"/>
<path d="M7027 4279 c7 -7 15 -10 18 -7 3 3 -2 9 -12 12 -14 6 -15 5 -6 -5z"/>
<path d="M7875 4270 c-8 -13 5 -13 25 0 13 8 13 10 -2 10 -9 0 -20 -4 -23 -10z"/>
<path d="M3400 4245 c13 -14 26 -25 28 -25 3 0 -5 11 -18 25 -13 14 -26 25
-28 25 -3 0 5 -11 18 -25z"/>
<path d="M4195 4260 c3 -5 14 -10 23 -10 15 0 15 2 2 10 -20 13 -33 13 -25 0z"/>
<path d="M4935 4239 c-22 -10 -29 -16 -15 -13 28 7 80 33 65 33 -5 0 -28 -9
-50 -20z"/>
<path d="M7101 4245 c40 -22 197 -65 233 -64 17 0 -6 8 -54 19 -47 10 -110 27
-140 39 -64 24 -76 26 -39 6z"/>
<path d="M7830 4250 c-8 -5 -10 -10 -5 -10 6 0 17 5 25 10 8 5 11 10 5 10 -5
0 -17 -5 -25 -10z"/>
<path d="M4240 4244 c0 -7 52 -25 57 -20 2 2 -10 8 -26 14 -17 6 -31 9 -31 6z"/>
<path d="M7775 4230 c-13 -6 -15 -9 -5 -9 8 0 22 4 30 9 18 12 2 12 -25 0z"/>
<path d="M1854 4216 c11 -9 27 -16 35 -15 14 0 14 1 1 6 -8 3 -24 10 -35 15
-20 9 -20 9 -1 -6z"/>
<path d="M4318 4213 c7 -3 16 -2 19 1 4 3 -2 6 -13 5 -11 0 -14 -3 -6 -6z"/>
<path d="M1012 4190 c0 -14 2 -19 5 -12 2 6 2 18 0 25 -3 6 -5 1 -5 -13z"/>
<path d="M1938 4203 c6 -2 18 -2 25 0 6 3 1 5 -13 5 -14 0 -19 -2 -12 -5z"/>
<path d="M3468 4203 c7 -3 16 -2 19 1 4 3 -2 6 -13 5 -11 0 -14 -3 -6 -6z"/>
<path d="M4358 4203 c7 -3 16 -2 19 1 4 3 -2 6 -13 5 -11 0 -14 -3 -6 -6z"/>
<path d="M4805 4200 c-27 -7 -28 -8 -5 -8 14 0 34 3 45 8 25 11 2 11 -40 0z"/>
<path d="M7665 4200 c-16 -7 -17 -9 -3 -9 9 -1 20 4 23 9 7 11 7 11 -20 0z"/>
<path d="M4398 4193 c6 -2 18 -2 25 0 6 3 1 5 -13 5 -14 0 -19 -2 -12 -5z"/>
<path d="M4448 4183 c6 -2 18 -2 25 0 6 3 1 5 -13 5 -14 0 -19 -2 -12 -5z"/>
<path d="M4733 4183 c9 -2 23 -2 30 0 6 3 -1 5 -18 5 -16 0 -22 -2 -12 -5z"/>
<path d="M7545 4180 c-17 -8 -17 -9 7 -7 15 1 24 5 22 9 -3 4 -6 8 -7 7 -1 0
-11 -4 -22 -9z"/>
<path d="M7608 4183 c6 -2 18 -2 25 0 6 3 1 5 -13 5 -14 0 -19 -2 -12 -5z"/>
<path d="M4548 4173 c29 -2 74 -2 100 0 26 2 2 3 -53 3 -55 0 -76 -1 -47 -3z"/>
<path d="M7408 4173 c23 -2 59 -2 80 0 20 2 1 4 -43 4 -44 0 -61 -2 -37 -4z"/>
<path d="M1026 4125 c8 -37 14 -45 14 -19 0 10 -5 26 -10 34 -8 11 -9 7 -4
-15z"/>
<path d="M9192 4080 c0 -14 2 -19 5 -12 2 6 2 18 0 25 -3 6 -5 1 -5 -13z"/>
<path d="M1046 4050 c4 -19 11 -44 15 -55 6 -14 7 -9 3 15 -4 19 -11 44 -15
55 -6 14 -7 9 -3 -15z"/>
<path d="M9151 3939 c-14 -46 -26 -91 -29 -99 -3 -8 -2 -12 1 -9 10 8 58 171
54 182 -1 5 -13 -29 -26 -74z"/>
<path d="M1071 3954 c0 -11 3 -14 6 -6 3 7 2 16 -1 19 -3 4 -6 -2 -5 -13z"/>
<path d="M1081 3925 c1 -19 18 -51 18 -35 0 8 -4 22 -9 30 -5 8 -9 11 -9 5z"/>
<path d="M1101 3864 c-1 -15 30 -107 41 -119 4 -5 0 15 -10 45 -27 78 -30 86
-31 74z"/>
<path d="M9102 3783 c-15 -48 -8 -55 8 -8 7 20 10 38 8 41 -3 2 -10 -13 -16
-33z"/>
<path d="M1150 3723 c0 -16 31 -95 36 -90 2 2 -5 25 -16 53 -10 27 -19 43 -20
37z"/>
<path d="M9066 3680 c-22 -56 -19 -65 5 -11 11 24 18 46 15 48 -2 2 -11 -14
-20 -37z"/>
<path d="M9027 3578 c-9 -23 -15 -43 -13 -45 2 -2 11 15 20 38 9 23 15 43 13
45 -2 2 -11 -15 -20 -38z"/>
<path d="M1206 3570 c3 -14 11 -32 16 -40 6 -10 7 -7 2 10 -3 14 -11 32 -16
40 -6 10 -7 7 -2 -10z"/>
<path d="M8992 3495 c-17 -37 -14 -45 4 -12 9 16 14 31 11 33 -2 2 -9 -7 -15
-21z"/>
<path d="M1236 3497 c3 -10 9 -15 12 -12 3 3 0 11 -7 18 -10 9 -11 8 -5 -6z"/>
<path d="M1250 3465 c0 -5 5 -17 10 -25 5 -8 10 -10 10 -5 0 6 -5 17 -10 25
-5 8 -10 11 -10 5z"/>
<path d="M8957 3415 c-24 -50 -20 -58 4 -12 11 22 19 41 17 43 -3 2 -12 -12
-21 -31z"/>
<path d="M1270 3413 c1 -11 49 -100 50 -92 0 10 -40 99 -45 99 -3 0 -5 -3 -5
-7z"/>
<path d="M8920 3336 c-15 -39 -12 -46 6 -13 9 16 13 31 10 34 -3 3 -10 -6 -16
-21z"/>
<path d="M1320 3308 c0 -4 9 -22 20 -40 11 -18 20 -28 20 -23 0 6 -9 24 -20
40 -11 17 -20 27 -20 23z"/>
<path d="M8854 3198 c-25 -50 -56 -108 -68 -127 -41 -66 -88 -151 -83 -151 7
0 127 210 171 298 20 39 34 72 31 72 -3 0 -26 -41 -51 -92z"/>
<path d="M1405 3140 c19 -38 38 -70 40 -70 3 0 -11 32 -30 70 -19 39 -38 70
-40 70 -3 0 11 -31 30 -70z"/>
<path d="M1452 3055 c19 -39 162 -266 171 -272 7 -4 3 6 -7 22 -11 17 -49 77
-84 135 -56 91 -96 149 -80 115z"/>
<path d="M8653 2848 c-15 -20 -25 -38 -20 -38 3 0 12 11 21 25 17 26 16 35 -1
13z"/>
<path d="M8613 2788 c-15 -20 -25 -38 -20 -38 3 0 12 11 21 25 17 26 16 35 -1
13z"/>
<path d="M1670 2710 c12 -16 24 -30 26 -30 3 0 -4 14 -16 30 -12 17 -24 30
-26 30 -3 0 4 -13 16 -30z"/>
<path d="M8511 2643 c-39 -54 -84 -114 -99 -132 -15 -19 -21 -31 -14 -27 20
12 200 256 188 256 -2 0 -36 -44 -75 -97z"/>
<path d="M1721 2638 c33 -46 122 -158 126 -158 5 0 -1 8 -81 113 -58 77 -88
106 -45 45z"/>
<path d="M1880 2435 c19 -19 36 -35 38 -35 8 0 -53 69 -62 69 -6 1 5 -15 24
-34z"/>
<path d="M8358 2445 c-37 -49 -237 -272 -272 -303 -20 -17 -33 -32 -28 -32 20
0 332 344 321 355 -2 1 -12 -7 -21 -20z"/>
<path d="M1920 2387 c0 -2 15 -16 33 -33 l32 -29 -29 33 c-28 30 -36 37 -36
29z"/>
<path d="M2030 2263 c51 -59 230 -232 315 -303 22 -19 -9 13 -70 70 -60 57
-152 147 -204 200 -62 63 -76 75 -41 33z"/>
<path d="M7975 2038 l-60 -63 63 60 c34 33 62 61 62 62 0 8 -10 -1 -65 -59z"/>
<path d="M7839 1922 c-133 -115 -145 -127 -130 -117 20 12 129 102 148 121 8
7 24 20 35 29 12 8 20 17 17 19 -2 3 -34 -21 -70 -52z"/>
<path d="M2391 1918 c2 -2 18 -14 34 -28 l30 -25 -24 28 c-14 15 -29 27 -34
27 -6 0 -8 -1 -6 -2z"/>
<path d="M2475 1850 c10 -11 20 -20 23 -20 3 0 -3 9 -13 20 -10 11 -20 20 -23
20 -3 0 3 -9 13 -20z"/>
<path d="M2560 1786 c0 -2 14 -14 30 -26 17 -12 30 -19 30 -16 0 2 -13 14 -30
26 -16 12 -30 19 -30 16z"/>
<path d="M7623 1748 c-29 -21 -53 -41 -53 -43 0 -4 64 39 109 72 2 2 2 5 0 7
-2 2 -28 -14 -56 -36z"/>
<path d="M2670 1707 c0 -3 12 -12 26 -22 15 -9 23 -12 20 -6 -7 11 -46 35 -46
28z"/>
<path d="M7495 1654 l-30 -26 33 22 c17 12 32 23 32 26 0 7 -4 5 -35 -22z"/>
<path d="M2734 1661 c3 -5 22 -18 42 -30 19 -12 33 -17 30 -12 -3 5 -22 18
-42 30 -19 12 -33 17 -30 12z"/>
<path d="M7393 1589 c-35 -22 -46 -37 -15 -20 22 13 58 40 52 41 -3 0 -20 -10
-37 -21z"/>
<path d="M2869 1573 c13 -10 43 -28 65 -41 23 -13 30 -15 17 -5 -13 10 -43 28
-65 41 -23 13 -30 15 -17 5z"/>
<path d="M7318 1542 c-14 -9 -76 -45 -137 -80 -61 -35 -111 -65 -111 -68 0 -3
3 -3 8 -1 4 2 64 37 134 76 70 40 130 76 133 81 8 13 5 12 -27 -8z"/>
<path d="M2980 1506 c0 -3 9 -10 20 -16 11 -6 20 -8 20 -6 0 3 -9 10 -20 16
-11 6 -20 8 -20 6z"/>
<path d="M3055 1462 c22 -21 333 -177 313 -157 -3 3 -77 42 -164 86 -87 44
-154 76 -149 71z"/>
<path d="M7008 1369 c-21 -11 -38 -22 -38 -24 0 -5 79 32 89 41 12 11 -18 1
-51 -17z"/>
<path d="M6855 1295 c-49 -24 -85 -43 -80 -43 6 -1 51 19 100 43 50 24 86 43
80 43 -5 1 -50 -19 -100 -43z"/>
<path d="M3400 1285 c14 -8 30 -14 35 -14 6 0 -1 6 -15 14 -14 8 -29 14 -35
14 -5 0 1 -6 15 -14z"/>
<path d="M3470 1255 c14 -8 30 -14 35 -14 6 0 -1 6 -15 14 -14 8 -29 14 -35
14 -5 0 1 -6 15 -14z"/>
<path d="M6705 1229 c-22 -10 -29 -16 -15 -13 28 7 80 33 65 33 -5 0 -28 -9
-50 -20z"/>
<path d="M3530 1230 c8 -5 20 -10 25 -10 6 0 3 5 -5 10 -8 5 -19 10 -25 10 -5
0 -3 -5 5 -10z"/>
<path d="M3609 1199 c24 -11 46 -18 48 -15 4 4 -73 36 -85 35 -4 0 13 -9 37
-20z"/>
<path d="M6600 1190 c-8 -5 -10 -10 -5 -10 6 0 17 5 25 10 8 5 11 10 5 10 -5
0 -17 -5 -25 -10z"/>
<path d="M3685 1170 c27 -12 43 -12 25 0 -8 5 -22 9 -30 9 -10 0 -8 -3 5 -9z"/>
<path d="M6500 1155 c-36 -13 -60 -24 -54 -24 13 -1 134 39 134 45 0 7 -12 4
-80 -21z"/>
<path d="M3760 1145 c46 -18 64 -17 25 0 -16 8 -37 14 -45 14 -8 0 1 -7 20
-14z"/>
<path d="M3858 1113 c7 -3 16 -2 19 1 4 3 -2 6 -13 5 -11 0 -14 -3 -6 -6z"/>
<path d="M3928 1093 c7 -3 16 -2 19 1 4 3 -2 6 -13 5 -11 0 -14 -3 -6 -6z"/>
<path d="M6278 1083 c7 -3 16 -2 19 1 4 3 -2 6 -13 5 -11 0 -14 -3 -6 -6z"/>
<path d="M6215 1070 c-13 -5 -14 -9 -5 -9 8 0 24 4 35 9 13 5 14 9 5 9 -8 0
-24 -4 -35 -9z"/>
<path d="M4068 1053 c7 -3 16 -2 19 1 4 3 -2 6 -13 5 -11 0 -14 -3 -6 -6z"/>
<path d="M4108 1043 c7 -3 16 -2 19 1 4 3 -2 6 -13 5 -11 0 -14 -3 -6 -6z"/>
<path d="M4148 1033 c7 -3 16 -2 19 1 4 3 -2 6 -13 5 -11 0 -14 -3 -6 -6z"/>
<path d="M4186 1030 c5 -4 27 -11 49 -14 45 -7 38 -2 -19 13 -22 6 -35 6 -30
1z"/>
<path d="M6088 1033 c6 -2 18 -2 25 0 6 3 1 5 -13 5 -14 0 -19 -2 -12 -5z"/>
<path d="M5980 1015 c-30 -7 -44 -13 -30 -13 14 0 48 6 75 13 65 16 27 17 -45
0z"/>
<path d="M4298 1003 c7 -3 16 -2 19 1 4 3 -2 6 -13 5 -11 0 -14 -3 -6 -6z"/>
<path d="M4338 998 c6 -6 18 -8 28 -6 14 3 12 5 -9 10 -19 3 -25 2 -19 -4z"/>
<path d="M5886 991 c-4 -5 3 -7 14 -4 23 6 26 13 6 13 -8 0 -17 -4 -20 -9z"/>
<path d="M4415 980 c17 -4 44 -8 60 -8 25 0 24 2 -10 9 -51 10 -92 10 -50 -1z"/>
<path d="M5788 973 c7 -3 16 -2 19 1 4 3 -2 6 -13 5 -11 0 -14 -3 -6 -6z"/>
<path d="M4523 963 c9 -2 25 -2 35 0 9 3 1 5 -18 5 -19 0 -27 -2 -17 -5z"/>
<path d="M5645 963 c-22 -3 -44 -8 -48 -12 -7 -7 102 3 143 13 19 5 -43 4 -95
-1z"/>
<path d="M4683 943 c9 -2 25 -2 35 0 9 3 1 5 -18 5 -19 0 -27 -2 -17 -5z"/>
<path d="M4748 943 c6 -2 18 -2 25 0 6 3 1 5 -13 5 -14 0 -19 -2 -12 -5z"/>
<path d="M5516 942 c-2 -4 11 -6 30 -4 19 2 34 6 34 8 0 8 -59 4 -64 -4z"/>
<path d="M4813 933 c15 -2 39 -2 55 0 15 2 2 4 -28 4 -30 0 -43 -2 -27 -4z"/>
<path d="M5120 930 l-225 -6 210 -1 c116 0 248 2 295 6 l85 8 -70 -1 c-38 0
-171 -3 -295 -6z"/>
</g>
</svg>
